<mxfile host="app.diagrams.net" modified="2021-07-07T19:51:03.364Z" agent="5.0 (Windows NT 10.0; Win64; x64) AppleWebKit/537.36 (KHTML, like Gecko) Chrome/91.0.4472.124 Safari/537.36" etag="KoermU0t5dYV4TQo87N7" version="14.8.4" type="github">
  <diagram id="sfMhByTyBKx8wE6UpBhj" name="PÃ¡gina-1">
    <mxGraphModel dx="1063" dy="561" grid="1" gridSize="10" guides="1" tooltips="1" connect="1" arrows="1" fold="1" page="1" pageScale="1" pageWidth="827" pageHeight="1169" math="0" shadow="0">
      <root>
        <mxCell id="0" />
        <mxCell id="1" parent="0" />
        <mxCell id="FfOL9UPuEbAy1hHYQ93U-1" value="" style="strokeWidth=1;shadow=0;dashed=0;align=center;html=1;shape=mxgraph.mockup.containers.browserWindow;rSize=0;strokeColor=#666666;strokeColor2=#008cff;strokeColor3=#c4c4c4;mainText=,;recursiveResize=0;" vertex="1" parent="1">
          <mxGeometry x="30" y="10" width="790" height="690" as="geometry" />
        </mxCell>
        <mxCell id="FfOL9UPuEbAy1hHYQ93U-2" value="Page 1" style="strokeWidth=1;shadow=0;dashed=0;align=center;html=1;shape=mxgraph.mockup.containers.anchor;fontSize=17;fontColor=#666666;align=left;" vertex="1" parent="FfOL9UPuEbAy1hHYQ93U-1">
          <mxGeometry x="60" y="12" width="110" height="26" as="geometry" />
        </mxCell>
        <mxCell id="FfOL9UPuEbAy1hHYQ93U-3" value="https://www.draw.io" style="strokeWidth=1;shadow=0;dashed=0;align=center;html=1;shape=mxgraph.mockup.containers.anchor;rSize=0;fontSize=17;fontColor=#666666;align=left;" vertex="1" parent="FfOL9UPuEbAy1hHYQ93U-1">
          <mxGeometry x="130" y="60" width="250" height="26" as="geometry" />
        </mxCell>
        <mxCell id="FfOL9UPuEbAy1hHYQ93U-7" value="" style="verticalLabelPosition=bottom;shadow=0;dashed=0;align=center;html=1;verticalAlign=top;strokeWidth=1;shape=mxgraph.mockup.graphics.simpleIcon;strokeColor=#999999;" vertex="1" parent="FfOL9UPuEbAy1hHYQ93U-1">
          <mxGeometry x="30" y="115" width="180" height="50" as="geometry" />
        </mxCell>
        <mxCell id="FfOL9UPuEbAy1hHYQ93U-8" value="" style="rounded=0;whiteSpace=wrap;html=1;fillColor=#000000;" vertex="1" parent="FfOL9UPuEbAy1hHYQ93U-1">
          <mxGeometry y="110" width="790" height="60" as="geometry" />
        </mxCell>
        <mxCell id="FfOL9UPuEbAy1hHYQ93U-10" value="&lt;h2&gt;&lt;font face=&quot;Tahoma&quot;&gt;My Color Picker&lt;/font&gt;&lt;/h2&gt;" style="text;html=1;fontSize=24;fontStyle=1;verticalAlign=middle;align=center;fontColor=#FFFFFF;fillColor=#000000;" vertex="1" parent="FfOL9UPuEbAy1hHYQ93U-1">
          <mxGeometry x="100" y="120" width="100" height="40" as="geometry" />
        </mxCell>
        <mxCell id="FfOL9UPuEbAy1hHYQ93U-11" value="" style="shape=ext;double=1;rounded=1;whiteSpace=wrap;html=1;fontColor=#FFFFFF;fillColor=#999999;" vertex="1" parent="FfOL9UPuEbAy1hHYQ93U-1">
          <mxGeometry x="100" y="240" width="580" height="420" as="geometry" />
        </mxCell>
      </root>
    </mxGraphModel>
  </diagram>
</mxfile>
